<svg width="579" height="341" viewBox="0 0 579 341" fill="none" xmlns="http://www.w3.org/2000/svg">
<path d="M343.286 310.371C270.36 313.799 72.3378 315.093 37.5088 315.32C45.578 324.916 50.3727 332.378 50.3727 332.378C492.067 356.814 480.132 315.189 480.132 315.189C480.132 315.189 483.035 305.442 488.807 290.299C475.441 295.826 420.538 306.819 343.286 310.371Z" fill="white"/>
<path d="M132.289 87.7442C132.234 92.067 135.358 95.7704 139.623 96.4725C140.09 96.5482 140.565 96.5826 141.026 96.5826C144.761 96.5826 148.16 94.1734 149.336 90.5182C150.065 88.2329 153.704 80.1586 170.035 71.9947C189.648 62.0893 226.155 43.6415 250.087 42.9944C252.55 42.9256 254.868 41.8174 256.485 39.9519C258.088 38.0796 258.831 35.6153 258.521 33.1717L258.109 29.7437C256.912 19.5354 255.783 9.88473 247.721 3.89607C244.213 1.27345 239.459 0 233.179 0C212.755 0 177.52 13.6362 161.257 23.4177C141.335 35.3882 129.428 47.4481 131.663 70.5767C132.152 75.4984 132.351 81.1154 132.289 87.7442Z" fill="white"/>
<path d="M291.245 119.112C317.29 93.0583 399.963 76.8614 399.963 76.8614L396.056 69.0418C396.056 69.0418 308.629 71.0311 275.238 84.3714C241.846 97.7185 159.008 138.366 159.008 138.366L160.404 120.455C160.404 120.455 211.083 89.5959 255.206 69.6888C309.929 44.977 389.342 54.965 389.342 54.965C389.342 54.965 392.066 48.3155 386.734 42.9326C381.362 37.5979 345.969 32.566 316.65 34.9477C275.458 38.2931 252.695 48.3155 252.695 48.3155C252.695 48.3155 252.626 48.1572 252.543 47.9163C245.141 51.0276 192.289 73.2269 172.443 84.3645C151.441 96.1422 142.154 103.969 138.969 115.271C136.816 132.735 133.727 145.814 133.727 145.814C133.727 145.814 113.681 155.21 86.956 165.858C60.2512 176.576 50.875 204.84 50.875 204.84C50.875 204.84 157.68 183.996 217.838 168.35C259.498 157.522 276.503 133.788 291.245 119.112Z" fill="white"/>
<path d="M572.87 68.3602C572.87 68.3602 547.788 60.3065 466.966 72.3389C386.191 84.3713 317.916 104.416 283.83 142.53C263.364 165.335 232.553 180.431 104.284 204.64C31.2901 218.407 1.33844 226.275 0.141477 236.263C-1.03485 246.361 4.94998 271.679 24.6587 295.737C26.6742 298.173 28.5798 300.61 30.389 302.978C58.0499 302.386 243.38 298.263 343.272 291.455C443.198 284.695 487.83 267.672 493.994 265.091C507.043 225.476 529.194 169.032 560.329 126.443C591.017 84.5296 572.87 68.3602 572.87 68.3602ZM431.215 156.084C429.536 167.621 420.359 175.75 410.777 174.318C401.222 172.893 394.831 162.437 396.537 150.935C398.298 139.439 407.475 131.276 417.016 132.7C426.599 134.125 432.948 144.643 431.215 156.084Z" fill="white"/>
</svg>
